<?xml version="1.0" encoding="UTF-8" standalone="no"?>
<!DOCTYPE svg PUBLIC "-//W3C//DTD SVG 1.1//EN"
 "http://www.w3.org/Graphics/SVG/1.1/DTD/svg11.dtd">
<!-- Generated by graphviz version 8.0.2 (20230410.1723)
 -->
<!-- Title: math/finding_number_of_digits_in_a_number.cpp Pages: 1 -->
<svg width="145pt" height="93pt"
 viewBox="0.00 0.00 145.00 93.00" xmlns="http://www.w3.org/2000/svg" xmlns:xlink="http://www.w3.org/1999/xlink">
<g id="graph0" class="graph" transform="scale(1 1) rotate(0) translate(4 89)">
<title>math/finding_number_of_digits_in_a_number.cpp</title>
<!-- Node1 -->
<g id="node1" class="node">
<title>Node1</title>
<g id="a_node1"><a xlink:title="[Program to count digits in an integer](https://www.geeksforgeeks.org/program&#45;count&#45;digits&#45;integer&#45;3&#45;...">
<polygon fill="#999999" stroke="#666666" points="137,-85 0,-85 0,-55 137,-55 137,-85"/>
<text text-anchor="start" x="8" y="-73" font-family="Helvetica,sans-Serif" font-size="10.00">math/finding_number</text>
<text text-anchor="middle" x="68.5" y="-62" font-family="Helvetica,sans-Serif" font-size="10.00">_of_digits_in_a_number.cpp</text>
</a>
</g>
</g>
<!-- Node2 -->
<g id="node2" class="node">
<title>Node2</title>
<g id="a_node2"><a xlink:title=" ">
<polygon fill="#e0e0e0" stroke="#999999" points="58,-19 9,-19 9,0 58,0 58,-19"/>
<text text-anchor="middle" x="33.5" y="-7" font-family="Helvetica,sans-Serif" font-size="10.00">cassert</text>
</a>
</g>
</g>
<!-- Node1&#45;&gt;Node2 -->
<g id="edge1" class="edge">
<title>Node1&#45;&gt;Node2</title>
<path fill="none" stroke="#63b8ff" d="M59.85,-54.54C55.13,-46.65 49.24,-36.81 44.23,-28.44"/>
<polygon fill="#63b8ff" stroke="#63b8ff" points="46.83,-26.96 38.69,-20.18 40.82,-30.55 46.83,-26.96"/>
</g>
<!-- Node3 -->
<g id="node3" class="node">
<title>Node3</title>
<g id="a_node3"><a xlink:title=" ">
<polygon fill="#e0e0e0" stroke="#999999" points="130.5,-19 76.5,-19 76.5,0 130.5,0 130.5,-19"/>
<text text-anchor="middle" x="103.5" y="-7" font-family="Helvetica,sans-Serif" font-size="10.00">iostream</text>
</a>
</g>
</g>
<!-- Node1&#45;&gt;Node3 -->
<g id="edge2" class="edge">
<title>Node1&#45;&gt;Node3</title>
<path fill="none" stroke="#63b8ff" d="M77.15,-54.54C81.87,-46.65 87.76,-36.81 92.77,-28.44"/>
<polygon fill="#63b8ff" stroke="#63b8ff" points="96.18,-30.55 98.31,-20.18 90.17,-26.96 96.18,-30.55"/>
</g>
</g>
</svg>
